<svg version="1.2" xmlns="http://www.w3.org/2000/svg" viewBox="0 0 157 41" width="157" height="41">
	<title>logo-svg</title>
	<defs>
		<clipPath clipPathUnits="userSpaceOnUse" id="cp1">
			<path d="m20.03 8.89l23.38 5.44-5.44 23.37-23.38-5.43z"/>
		</clipPath>
	</defs>
	<style>
		tspan { white-space:pre } 
		.s0 { fill: #17c548 } 
		.s1 { fill: none;stroke: #17c548;stroke-linecap: round;stroke-linejoin: round;stroke-width: 2 } 
		.t2 { font-size: 24px;fill: #000000;font-weight: 700;font-family: "DejaVuSans-Bold", "DejaVu Sans" } 
	</style>
	<path fill-rule="evenodd" class="s0" d="m2.1 5.4l1.2 0.4c2.1 0.8 4.3 1 6.4 0.7 2.3-0.4 4.6-0.1 6.7 0.9 1.1 0.5 2.1 1.2 2.8 2.1 0.8 1 1.3 2.1 1.5 3.3 0.2 1.1 0.2 2.3-0.1 3.4-0.2 1.2-0.7 2.3-1.4 3.2q0.1 0.3 0.2 0.6 0.6 2.6 0.6 5.3h-2q-0.1-2.2-0.6-4.3c-1.4 0.7-2.9 1.1-4.5 1.1-1.5 0-2.9-0.3-4.3-0.9-7.6-3.2-6.6-14-6.6-14.5zm7.3 13.9c2.6 1.1 5.7 1 7.4-0.4q-0.4-1.5-1.2-2.9-0.6-0.9-1.4-1.7-0.8-0.9-1.8-1.5c-1.3-0.8-2.8-1.3-4.4-1.5v-1c1.8-0.1 3.6 0.3 5.2 1 1.7 0.9 3.1 2.1 4.2 3.7q0.5 0.9 1 1.9c0.4-1.2 0.6-2.5 0.3-3.8-0.1-0.9-0.5-1.7-1-2.4-0.6-0.7-1.3-1.2-2.1-1.6-1.2-0.5-2.5-0.8-3.8-0.8-0.6 0-1.3 0-1.9 0.1-2 0.3-4 0.1-6-0.4 0.1 2.8 0.6 9.3 5.5 11.3z"/>
	<g id="Clip-Path" clip-path="url(#cp1)">
		<g>
			<path fill-rule="evenodd" class="s1" d="m23.7 28.2c11.7 2.7 14.9-6.9 16.1-11.6q0-0.2 0-0.4 0-0.2-0.1-0.4-0.1-0.2-0.3-0.3-0.2-0.1-0.4-0.1c-16.6-3.6-18.4 4.5-20.1 11.7l-0.9 3.9"/>
			<path fill-rule="evenodd" class="s1" d="m18.9 27.1c0 0 1.3-5.8 9.4-5"/>
		</g>
	</g>
	<text id="Shopping" style="transform: matrix(.912,0,0,1.542,41.088,32.292)" >
		<tspan x="0" y="0" class="t2">S</tspan><tspan  y="0" class="t2">h</tspan><tspan  y="0" class="t2">o</tspan><tspan  y="0" class="t2">p</tspan><tspan  y="0" class="t2">p</tspan><tspan  y="0" class="t2">i</tspan><tspan  y="0" class="t2">n</tspan><tspan  y="0" class="t2">g
</tspan>
	</text>
</svg>